<svg xmlns="http://www.w3.org/2000/svg" viewBox="0 0 256 256" role="img" aria-label="MSR AMIS icon">
  <rect width="256" height="256" rx="46" fill="#0B3D91"/>
  <path d="M128 28 56 58v60c0 52 31 90 72 110 41-20 72-58 72-110V58L128 28Z" fill="#4A90E2"/>
  <path d="M128 43 72 66v52c0 40 22 70 56 88 34-18 56-48 56-88V66l-56-23Z" fill="#FFFFFF"/>
  <rect x="75" y="88" width="106" height="67" rx="9" fill="#12344D"/>
  <rect x="87" y="100" width="82" height="43" rx="4" fill="#EAF4FF"/>
  <path d="M67 167h122l-13 18H80l-13-18Z" fill="#12344D"/>
  <path d="M107 128 123 144 156 109" fill="none" stroke="#28A745" stroke-width="16" stroke-linecap="round" stroke-linejoin="round"/>
</svg>
